<?xml version="1.0" encoding="utf-8"?>
<!-- Generator: Adobe Illustrator 16.0.0, SVG Export Plug-In . SVG Version: 6.00 Build 0)  -->
<!DOCTYPE svg PUBLIC "-//W3C//DTD SVG 1.1//EN" "http://www.w3.org/Graphics/SVG/1.1/DTD/svg11.dtd">
<svg version="1.1" id="图层_1" xmlns="http://www.w3.org/2000/svg" xmlns:xlink="http://www.w3.org/1999/xlink" x="0px" y="0px"
	 width="118px" height="28px" viewBox="0 0 118 28" enable-background="new 0 0 118 28" xml:space="preserve">
<g>
	<path fill="#A69068" d="M8.618,15.314l2.362,1.399c0.261,0.088,0.261,0.261,0,0.526c-2.448,2.967-5.596,5.769-9.442,8.476
		c-0.087,0.086-0.263,0.086-0.263,0c-0.087-0.175-0.087-0.262,0-0.349C4.161,23.183,6.608,19.772,8.618,15.314z M18.848,2.376
		l1.923,2.012c0.174,0.175,0.174,0.175,0.087,0.175c0,0.086-0.087,0.086-0.174,0.086C19.809,4.825,15.787,5.26,8.618,5.787
		L8.444,5.961l-1.662,7.606l6.034-0.089v-3.146l-0.089-2.886c-0.087-0.174-0.087-0.261,0-0.35h0.176l2.623,1.137
		c0.174,0,0.174,0.087,0.087,0.351l-0.35,0.698v4.196l4.72-0.087l1.661-1.66l1.836,1.747l0.087,0.176
		c-0.087,0.087-0.174,0.087-0.174,0.087l-8.13,0.174v4.37l0.087,4.198c0.087,1.483-1.136,2.884-3.498,4.109
		c-0.174,0.087-0.261,0-0.348-0.174c0-1.052-0.351-1.749-1.051-2.188c-0.174-0.087-0.174-0.174,0-0.353
		c1.662,0.179,2.362-0.087,2.186-0.608l0.087-9.18l-8.566,0.174c-0.176-0.174-0.176-0.35,0-0.438
		c0.525-0.086,0.875-0.437,0.962-1.222l0.698-5.597l0.176-3.058c0-0.176,0.087-0.263,0.174-0.089L8.708,5.26
		C13.515,4.299,16.925,3.338,18.848,2.376z M16.835,16.275c3.672,1.749,5.771,2.976,6.121,3.671
		c0.174,0.879-0.176,1.749-0.961,2.449c-0.524,0.613-1.05,0.439-1.399-0.526c-1.05-2.357-2.362-4.106-3.935-5.333
		C16.662,16.449,16.662,16.362,16.835,16.275z"/>
	<path fill="#A69068" d="M30.824,21.434c-0.174,0.088-0.261,0.088-0.351,0c0-0.086,0-0.173,0.089-0.348
		c2.36-2.01,4.544-5.336,6.643-9.879l1.749,1.31c0.174,0.089,0.174,0.176,0,0.176l-0.35,0.35c-0.35,0.524-0.699,1.048-1.136,1.573
		l0.174,8.828c0,0.614-0.437,1.488-1.398,2.537c-0.351,0.261-0.524,0.261-0.611-0.088l0.174-5.858v-3.498
		C34.758,18.111,33.01,19.686,30.824,21.434z M37.643,6.485l1.225,1.398c0.261,0.176,0.174,0.35-0.176,0.524
		c-2.534,1.662-4.807,2.886-6.906,3.671c-0.174,0-0.174-0.086-0.087-0.174C34.321,10.157,36.331,8.321,37.643,6.485z M36.244,4.736
		c-1.138,0-2.099,0.089-2.797,0.35l-0.788-0.787l6.993-0.087V1.589l2.273,0.787c0.176-0.087,0.176,0,0,0.174L41.577,2.9
		l-0.089,1.225l3.761-0.087L45.16,1.502l2.449,0.961c0.174,0,0.174,0.087,0,0.176l-0.263,0.35l-0.174,1.048l4.196-0.086l1.312-1.401
		l1.836,1.662c0.174,0.087,0.087,0.176-0.087,0.351l-7.519,0.086l-0.174,0.875c-0.35,0.438-0.7,0.7-1.137,0.961
		c-0.174,0-0.348-0.087-0.348-0.174V4.563l-3.761,0.086v0.438c-0.348,0.611-0.785,1.137-1.398,1.398
		c-0.174,0.087-0.348,0-0.437-0.087V4.736H36.244z M44.288,16.275l1.659,0.699c0.176,0.088,0.263,0.175,0.087,0.175l-0.348,0.526
		l-0.701,4.808l2.36-1.658c0.176-0.091,0.263,0,0.176,0.087l-3.935,4.368l-0.7-1.837l0.613-0.348l0.175-5.42h-1.923l-0.086,1.748
		c0,2.445-1.138,4.721-3.498,6.908c-0.174,0.087-0.261,0.087-0.35,0.087c-0.087-0.087-0.087-0.178,0-0.352
		c1.574-1.923,2.272-4.198,2.186-6.991l-0.087-2.801l1.836,0.965l1.749-0.091L44.288,16.275z M39.652,15.14
		c-0.174-0.174-0.174-0.35,0-0.524l4.722-0.087l0.961-0.961l1.223,1.223c0.089,0.089,0,0.089-0.087,0.089L39.652,15.14z
		 M43.937,7.009l-0.35,4.896l1.225-0.087V8.932V7.186l2.186,0.961l-0.439,0.698l-0.174,3.148l0.174,0.176
		c0,0.087,0,0.087-0.087,0.087c-1.223,0-3.147,0.087-5.769,0.174c-0.176,0.438-0.524,0.788-0.961,1.049
		c-0.176,0.176-0.263,0.176-0.35,0.089v-0.089l0.087-2.01v-2.36V7.186l1.662,0.785l-0.176,0.437l-0.087,3.498v0.087l1.224-0.087
		l0.087-4.283L42.101,5.61l1.923,0.787L43.937,7.009z M49.269,5.787l2.186,1.222c0.176,0.087,0.176,0.177,0,0.351l-0.437,0.524
		c-0.174,0.176-0.348,0.524-0.524,1.049c-0.174,0.437-0.524,1.311-1.136,2.536l3.058-0.35l0.961-1.049l1.575,1.225
		c0.174,0.174,0.087,0.261-0.087,0.348l-3.411,0.176l1.312,0.611c0.174,0.087,0.174,0.263,0,0.613
		c-0.611,3.145-1.485,5.594-2.623,7.517c0.787,1.484,2.536,2.972,5.246,4.285c0.087,0.087,0.174,0.174,0.174,0.174
		c-0.087,0.087-0.174,0.087-0.174,0.087c-0.787-0.087-1.749,0.436-2.973,1.574c-1.747-1.922-2.797-3.497-3.147-4.724
		c-0.873,1.14-2.535,2.802-4.981,4.898c-0.089,0.088-0.177,0-0.177-0.087c-0.086-0.088-0.086-0.175,0-0.175
		c2.273-2.01,3.848-4.023,4.809-6.033c-0.176-0.961-0.437-2.448-0.613-4.546c-0.087-0.437-0.087-0.874-0.087-1.135l0.35-0.089
		c0.263,1.66,0.611,2.973,1.049,4.109c0.7-1.658,1.137-3.933,1.311-6.993l-1.572,0.087c-0.788,1.485-1.575,3.06-2.36,4.63
		c-0.176,0.091-0.264,0.091-0.35,0.091c-0.089-0.091-0.089-0.178,0-0.178c1.398-4.543,2.272-8.04,2.534-10.575
		C49.094,5.787,49.181,5.787,49.269,5.787z"/>
	<path fill="#A69068" d="M66.843,1.852l2.619,1.749c0.174,0.174,0.087,0.261-0.088,0.437c-0.348,0.174-0.695,0.438-1.135,0.788
		L67.8,5.35l3.498-0.176l1.313-1.399l1.836,1.575l0.086,0.174C74.447,5.61,74.36,5.61,74.36,5.61L69.81,5.787
		c0.879,0.524,1.313,1.135,1.313,1.747c-0.087,0.526-0.348,0.874-0.961,1.05c-0.526,0.087-0.788-0.087-0.788-0.437
		c-0.086-1.138-0.261-1.923-0.521-2.273l-1.749,0.087c-1.661,1.485-3.41,3.06-5.246,4.633c-0.175,0.174-0.175,0.087-0.175-0.174
		C64.128,7.446,65.79,4.563,66.843,1.852z M67.104,13.304l-0.174,10.14c-0.087,0.962-0.613,1.924-1.575,2.976
		c-0.261,0.174-0.435,0.174-0.521,0l0.174-7.521V14.79l-0.087-3.671l2.358,0.961c0.086,0,0.174,0,0.174,0.089l-0.088,0.174
		L67.104,13.304z M68.065,8.408c2.01,0.613,2.971,1.138,2.971,1.662c-0.174,0.787-0.436,1.398-0.961,1.662
		c-0.353,0.174-0.613,0.087-0.787-0.35c-0.522-1.486-1.049-2.449-1.401-2.797C67.713,8.408,67.8,8.321,68.065,8.408z M71.123,20.646
		c-0.174,0.614-0.609,1.136-1.135,1.575c-0.266,0.174-0.439,0.174-0.526-0.178v-6.729c0-0.786,0-1.487,0-2.011
		c-0.088-0.174,0-0.261,0.174-0.087l1.4,0.961l4.72-0.174l0.787-1.138l2.01,1.138c0.088,0,0.088,0.086,0.088,0.174l-0.436,0.7
		l0.087,4.373c-0.087,0.695-0.435,1.483-1.227,2.444c-0.348,0.261-0.608,0.261-0.783,0c-0.087-0.174-0.173-0.435-0.435-0.696
		c-0.178-0.265-0.266-0.439-0.353-0.613L71.123,20.646z M75.935,14.265l-4.898,0.087v2.536l4.194-0.175
		c0.178,0,0.178,0.088,0.178,0.175c0,0.174-0.087,0.174-0.353,0.174l-4.106,0.178l0.087,2.881l4.812-0.175L75.935,14.265
		L75.935,14.265z M76.282,10.944c-1.313,0-2.361,0.087-3.148,0.35l-0.696-0.7l7.952-0.437l1.052-1.136l2.185,1.312
		c0,0.087,0,0.087,0.087,0.087c0.087,0.087,0,0.174-0.087,0.174l-0.787,1.048l0.087,5.859l0.086,4.107
		c0.179,1.923-0.873,3.584-3.058,4.984c-0.175,0.087-0.261,0.087-0.348,0c-0.088-0.086-0.088-0.174,0-0.352
		c-0.088-0.961-0.439-1.658-1.054-2.184c-0.086-0.091-0.086-0.179-0.086-0.179c0-0.087,0-0.087,0.086-0.087
		c1.401,0.087,2.098-0.261,1.924-1.044L80.39,10.681L76.282,10.944z M76.282,1.678l2.532,1.573c0.178,0.087,0.088,0.174-0.087,0.35
		c-0.436,0.174-0.783,0.437-1.044,0.787c-0.091,0.087-0.179,0.175-0.179,0.349c-0.173,0.176-0.261,0.35-0.439,0.524l4.376-0.174
		l1.31-1.398l1.836,1.572c0.174,0.176,0.174,0.176,0,0.176L79.08,5.523c1.396,0.788,2.01,1.399,2.01,2.01
		c-0.174,0.613-0.526,1.137-1.223,1.398c-0.525,0.176-0.787,0-0.787-0.436c-0.088-1.4-0.353-2.449-0.7-2.973L76.718,5.61
		c-0.175,0.177-0.522,0.524-0.962,1.051c-0.787,1.048-1.57,1.835-2.184,2.447c-0.178,0.087-0.265,0.087-0.352,0.087
		s-0.087-0.087,0-0.174C74.708,6.135,75.67,3.688,76.282,1.678z"/>
	<path fill="#A69068" d="M102.857,1.589l2.798,1.4l0.174,0.174c0,0.087-0.087,0.174-0.174,0.35l-0.175,0.174
		c2.01,3.408,5.856,6.294,11.537,8.741c0.088,0.263,0,0.438-0.087,0.438c-1.135,0.087-2.185,0.7-3.411,1.835
		c-3.932-2.623-6.729-6.206-8.387-10.751l-0.087,0.086c-3.236,4.546-7.608,8.655-13.116,12.325
		c-0.265-0.087-0.352-0.175-0.173-0.436C96.563,12.342,100.235,7.534,102.857,1.589z M99.713,11.118
		c-0.088-0.174,0-0.262,0.173-0.174l2.533,1.049c0.174,0.086,0.261,0.176,0.087,0.437l-0.348,0.701v3.319
		c0.521,4.637-2.885,8.048-10.229,10.23c-0.173,0-0.265-0.087-0.352-0.173c-0.087-0.088,0-0.175,0.087-0.175
		c5.772-1.835,8.396-5.159,7.96-10.057v-1.66c0-0.525,0-1.225-0.087-2.187C99.713,11.731,99.713,11.294,99.713,11.118z
		 M106.09,10.856l2.889,1.223c0.087,0,0.087,0.089,0.087,0.176l-0.438,0.524v5.944v4.72c-0.175,0.788-0.788,1.662-1.745,2.537
		c-0.439,0.352-0.792,0.352-0.792-0.088l0.088-5.158v-6.382L106.09,10.856z"/>
</g>
</svg>
