<?xml version="1.0" encoding="utf-8"?>
<!-- Generator: Adobe Illustrator 16.0.0, SVG Export Plug-In . SVG Version: 6.00 Build 0)  -->
<!DOCTYPE svg PUBLIC "-//W3C//DTD SVG 1.1//EN" "http://www.w3.org/Graphics/SVG/1.1/DTD/svg11.dtd">
<svg version="1.1" id="图层_1" xmlns="http://www.w3.org/2000/svg" xmlns:xlink="http://www.w3.org/1999/xlink" x="0px" y="0px"
	 width="118px" height="28px" viewBox="0 0 118 28" enable-background="new 0 0 118 28" xml:space="preserve">
<g>
	<path fill="#A69068" d="M8.072,1.536l2.253,1.039c0.173,0.173,0.173,0.347,0.086,0.52l-0.173,0.607v3.292l2.513-0.086l1.04-1.3
		l2.338,1.3c0.173,0.086,0.086,0.173-0.087,0.26l-0.693,1.039l-0.086,6.844l0.086,5.37c0.173,1.992-0.866,3.466-3.031,4.503
		c-0.173,0.088-0.26,0.088-0.347,0.088c-0.173-0.088-0.173-0.175-0.087-0.348c0.087-0.865-0.173-1.472-0.779-1.731
		c-0.173-0.087-0.173-0.173-0.086-0.173c0-0.088,0.086-0.088,0.173-0.088c1.213,0,1.732-0.432,1.646-1.212V7.426l-2.599,0.087v3.465
		c0.26,6.755-2.425,11.781-8.143,15.159c-0.346,0.172-0.433,0.087-0.173-0.173c2.599-2.166,4.331-4.158,5.024-6.064
		c0.866-1.991,1.299-4.937,1.299-8.921V7.686H7.033c-0.52,0-1.3,0.086-2.339,0.26L4.001,7.253L8.246,7.08V5.434
		c0-0.433,0-1.299-0.086-2.425C8.072,2.229,8.072,1.795,8.072,1.536z M23.058,5.521l2.252,1.299c0.173,0,0.173,0.087,0,0.173
		l-0.606,1.04l0.086,10.307l0.087,0.174c0.086,0.174,0,0.174-0.087,0.174c-1.3,0-3.119,0-5.543,0.087v2.944
		c-0.087,1.04-0.52,2.079-1.386,2.944c-0.433,0.173-0.606,0.173-0.606-0.085l0.086-5.631V8.119c0-1.039,0-1.992,0-2.598
		c0-0.174,0.087-0.174,0.173,0l1.819,1.212l2.945-0.086L23.058,5.521z M19.333,7.167L19.16,18.34l3.119-0.086L22.105,7.08
		L19.333,7.167z"/>
	<path fill="#A69068" d="M39.604,4.568l-0.867-0.693l4.678-0.173l0.606-0.867l1.299,0.78c0.173,0,0.173,0.087,0,0.173l-0.693,0.607
		c-0.26,8.489,3.551,14.813,11.521,18.97c0.173,0,0.173,0,0.173,0.087c0,0.086-0.086,0.174-0.173,0.174
		c-1.039-0.174-2.252,0.346-3.638,1.559c-4.417-3.205-7.017-7.45-7.796-12.733c-1.299,4.937-5.284,9.615-12.04,14.033
		c-0.174,0.086-0.26,0.086-0.26,0c0-0.175,0-0.26,0.086-0.26c5.804-4.332,9.702-10.914,11.607-19.664c0-0.26,0-0.693,0-1.213
		c-0.086-0.433-0.086-0.867-0.086-1.126l-2.512,0.086C41.076,4.308,40.382,4.395,39.604,4.568z"/>
	<path fill="#A69068" d="M70.268,15.31l2.339,1.386c0.259,0.086,0.259,0.259,0,0.521c-2.426,2.857-5.545,5.716-9.268,8.4
		c-0.175,0.087-0.261,0.087-0.261,0c-0.087-0.173-0.087-0.26,0-0.26C65.936,23.105,68.362,19.728,70.268,15.31z M80.401,2.575
		l1.906,1.993c0.173,0.173,0.173,0.173,0.088,0.173c0,0.087-0.088,0.087-0.174,0.087c-0.866,0.173-4.851,0.605-11.954,1.125
		l-0.174,0.173l-1.645,7.45l5.977-0.086v-3.118l-0.087-2.859c-0.086-0.173-0.086-0.26,0-0.346h0.172l2.601,1.125
		c0.173,0,0.173,0.087,0.086,0.347l-0.26,0.693v4.158l4.678-0.086l1.646-1.646l1.819,1.732l0.088,0.173
		c-0.088,0.086-0.175,0.086-0.175,0.086l-7.969,0.173l-0.087,4.245l0.087,4.159c0.087,1.472-1.04,2.857-3.464,4.07
		c-0.175,0.087-0.261,0-0.348-0.173c0-1.04-0.348-1.732-1.04-2.166c-0.173-0.087-0.173-0.172,0-0.26
		c1.646,0.173,2.338-0.086,2.08-0.606l0.086-9.095l-8.403,0.173c-0.172-0.173-0.172-0.347,0-0.433
		c0.521-0.087,0.867-0.433,0.867-1.212l0.693-5.544l0.174-3.032c0-0.173,0.087-0.26,0.172-0.087l2.512,1.386
		C75.118,4.48,78.497,3.528,80.401,2.575z M78.41,16.348c3.638,1.734,5.63,2.946,6.063,3.64c0.174,0.866-0.173,1.646-0.866,2.425
		c-0.52,0.606-1.04,0.433-1.386-0.521c-1.04-2.252-2.252-4.07-3.812-5.283C78.236,16.522,78.236,16.436,78.41,16.348z"/>
	<path fill="#A69068" d="M92.27,21.373c-0.173,0.086-0.261,0.086-0.261,0c0-0.088,0-0.175,0.088-0.26
		c2.252-1.994,4.505-5.283,6.583-9.703l1.733,1.3c0.172,0.086,0.172,0.173,0,0.173l-0.261,0.346c-0.347,0.52-0.693,1.04-1.126,1.473
		l0.172,8.662c0,0.606-0.432,1.472-1.386,2.513c-0.345,0.26-0.519,0.26-0.605-0.087l0.174-5.717v-3.465
		C96.082,18.082,94.349,19.728,92.27,21.373z M98.94,6.647l1.212,1.386c0.261,0.173,0.174,0.259-0.174,0.52
		c-2.511,1.646-4.763,2.858-6.756,3.638c-0.173,0-0.173-0.087-0.086-0.173C95.646,10.198,97.641,8.466,98.94,6.647z M97.553,4.914
		c-1.126,0-2.078,0.087-2.685,0.26l-0.779-0.78l6.843-0.087V1.795l2.253,0.78c0.172-0.087,0.172,0,0,0.173l-0.349,0.346
		l-0.085,1.213l3.724-0.086l-0.086-2.512l2.426,1.04c0.174,0,0.174,0.086,0,0.173l-0.26,0.26l-0.173,1.039l4.157-0.087l1.299-1.386
		l1.821,1.646c0.172,0.086,0.085,0.173-0.088,0.259l-7.362,0.087l-0.175,1.04c-0.345,0.434-0.692,0.693-1.125,0.867
		c-0.174,0-0.261-0.087-0.261-0.174V4.741l-3.725,0.087v0.433c-0.346,0.606-0.78,1.039-1.386,1.386
		c-0.174,0.086-0.347,0-0.433-0.087V4.914H97.553z M105.438,16.348l1.645,0.693c0.173,0.087,0.26,0.175,0.087,0.175l-0.346,0.518
		l-0.693,4.679l2.338-1.646c0.173-0.086,0.26,0,0.173,0.088l-3.811,4.33l-0.693-1.819l0.607-0.259l0.173-5.372h-1.906l-0.087,1.734
		c0,2.424-1.125,4.675-3.465,6.756c-0.173,0.085-0.261,0.085-0.346,0.085c-0.087-0.085-0.087-0.172,0-0.258
		c1.559-1.908,2.251-4.159,2.165-6.844l-0.087-2.685l1.819,0.865l1.733-0.086L105.438,16.348z M100.932,15.222
		c-0.174-0.172-0.174-0.346,0-0.52l4.678-0.086l0.865-0.866l1.215,1.213c0.085,0.087,0,0.087-0.087,0.087L100.932,15.222z
		 M105.177,7.167l-0.347,4.851l1.213-0.087V9.072V7.34l2.078,0.866l-0.432,0.693l-0.174,3.119l0.174,0.173
		c0,0.086,0,0.086-0.087,0.086c-1.214,0-3.119,0.087-5.632,0.174c-0.172,0.433-0.521,0.779-0.865,1.039
		c-0.174,0.173-0.261,0.173-0.348,0.086V13.49l0.087-1.992V9.245V7.34l1.646,0.779l-0.174,0.434l-0.087,3.465v0.086l1.214-0.086
		l0.087-4.245l-0.087-1.992l1.905,0.78L105.177,7.167z M110.461,5.954l2.166,1.213c0.172,0.086,0.172,0.173,0,0.346l-0.434,0.52
		c-0.174,0.173-0.26,0.52-0.521,1.039c-0.172,0.433-0.52,1.3-1.125,2.512l3.03-0.259l0.866-1.041l1.56,1.213
		c0.173,0.173,0.087,0.26-0.087,0.346l-3.29,0.174l1.298,0.606c0.174,0.086,0.174,0.259,0,0.605
		c-0.605,3.118-1.473,5.545-2.598,7.363c0.779,1.473,2.425,2.858,5.109,4.243c0.088,0.087,0.173,0.175,0.173,0.175
		c-0.085,0.087-0.173,0.087-0.173,0.087c-0.777-0.087-1.731,0.434-2.943,1.56c-1.646-1.906-2.688-3.466-3.119-4.679
		c-0.867,1.127-2.513,2.772-4.937,4.851c-0.088,0.088-0.175,0-0.175-0.085c-0.086-0.087-0.086-0.175,0-0.175
		c2.253-1.991,3.813-3.984,4.765-5.977c-0.172-0.953-0.433-2.426-0.607-4.418c-0.085-0.433-0.085-0.865-0.085-1.125l0.26-0.087
		c0.261,1.646,0.605,2.946,1.038,4.07c0.694-1.645,1.127-3.896,1.301-6.842l-1.56,0.086c-0.779,1.473-1.56,3.033-2.34,4.505
		c-0.173,0.086-0.26,0.086-0.26,0.086c-0.085-0.086-0.085-0.172,0-0.172c1.386-4.419,2.253-7.883,2.513-10.396
		C110.2,5.954,110.287,5.954,110.461,5.954z"/>
</g>
</svg>
