<?xml version="1.0" encoding="utf-8"?>
<!-- Generator: Adobe Illustrator 16.0.0, SVG Export Plug-In . SVG Version: 6.00 Build 0)  -->
<!DOCTYPE svg PUBLIC "-//W3C//DTD SVG 1.1//EN" "http://www.w3.org/Graphics/SVG/1.1/DTD/svg11.dtd">
<svg version="1.1" id="图层_1" xmlns="http://www.w3.org/2000/svg" xmlns:xlink="http://www.w3.org/1999/xlink" x="0px" y="0px"
	 width="118px" height="28px" viewBox="0 0 118 28" enable-background="new 0 0 118 28" xml:space="preserve">
<g>
	<path fill="#A69068" d="M5.166,24.682c-1.14,0.088-2.194,0.176-2.983,0.352l-0.79-0.877l8.951-0.088l0.087-17.902l-0.087-4.65
		l2.632,0.789c0.175,0.089,0.264,0.175,0.088,0.438c-0.176,0.176-0.352,0.526-0.527,1.053L12.449,23.98h2.896l0.088-17.726
		l-0.088-4.651l2.984,0.791c0.175,0,0.175,0.175,0,0.437c-0.176,0.088-0.351,0.439-0.526,1.054l-0.088,13.952
		c1.842-4.211,3.159-8.161,3.949-11.583l2.984,1.755c0.175,0.175,0.175,0.263,0,0.351l-0.702,0.526
		c-2.106,4.037-4.212,7.457-6.142,10.268l-0.088,4.826l5.353-0.089l1.58-1.402l2.281,1.667c0.088,0.175,0,0.262-0.087,0.35
		L5.166,24.682z M4.288,7.219c3.247,3.862,5.002,6.756,5.264,8.863c-0.174,1.054-0.964,1.755-2.193,2.195
		c-0.614,0.175-0.877-0.089-0.789-0.616c-0.175-3.859-0.966-7.283-2.457-10.266C4.025,7.131,4.113,7.131,4.288,7.219z"/>
	<path fill="#A69068" d="M41.668,12.221l2.545,0.966c0.175,0.087,0.175,0.175,0,0.351l-0.352,0.702c0,0.175,0,0.438,0,0.79
		c-0.086,0.438-0.086,0.702-0.086,0.966l4.563-0.352l1.14-1.316l2.457,1.58c0.176,0.175,0.176,0.263,0,0.437l-0.702,0.792
		c0,0.438,0,1.142-0.087,2.019c-0.088,1.841-0.176,2.895-0.176,3.069c-0.438,1.404-1.755,2.721-3.949,3.773
		c-0.175,0.089-0.352,0-0.352-0.174c0.176-1.142-0.175-1.843-0.789-2.282c-0.176,0-0.176-0.088-0.087-0.175h0.176
		c1.491,0,2.193-0.441,2.193-1.317c0.176-0.788,0.35-2.72,0.35-5.879l-4.737,0.174c-0.351,4.829-4.212,8.426-11.583,10.619
		c-0.175,0.089-0.264,0-0.351-0.087c0-0.177,0.087-0.265,0.176-0.352c6.054-1.843,9.213-5.178,9.476-10.092l-2.984,0.176
		l-2.019,0.177l-0.877-0.525l5.968-0.178c0-0.175,0-0.351,0.086-0.614c0-0.262,0-0.438,0-0.614
		C41.668,13.888,41.668,13.099,41.668,12.221z M41.143,1.341l2.282,1.403C43.6,2.832,43.6,2.92,43.336,3.184L42.81,3.71
		c-0.175,0.351-0.439,0.614-0.702,0.789l5.791-0.175l1.492-1.315l2.369,1.843c0.088,0.086,0.175,0.175,0.175,0.175
		c-0.087,0.087-0.175,0.087-0.175,0.087l-1.141,0.703c-0.175,0.175-0.526,0.438-1.053,0.79c-1.579,1.404-2.808,2.37-3.597,2.895
		c1.754,0.878,5.439,2.019,10.88,3.334c0.175,0,0.175,0,0.175,0.088c0,0.176-0.088,0.176-0.175,0.176
		c-0.966,0.175-2.019,0.876-3.334,2.281c-4.125-1.404-7.196-3.071-9.127-4.913c-2.544,1.667-6.142,3.335-10.704,5.177
		c-0.176,0.088-0.264,0.088-0.353,0c-0.087-0.089,0-0.176,0.088-0.351c3.949-1.931,7.195-3.949,9.74-6.054
		c-0.79-1.054-1.579-2.194-2.369-3.423c-1.581,1.755-3.422,3.423-5.529,5.001c-0.176,0.088-0.264,0.088-0.351,0
		c-0.088-0.087-0.088-0.176,0-0.176c2.458-2.632,4.387-5.791,5.791-9.213c0-0.088,0-0.176,0.089-0.176L41.143,1.341z M47.548,4.851
		l-5.966,0.351c-0.088,0.176-0.176,0.351-0.439,0.438c0.877,1.141,1.843,2.193,2.983,2.984C45.179,7.658,46.319,6.43,47.548,4.851z"
		/>
	<path fill="#A69068" d="M74.4,1.253l2.543,1.142c0.176,0.086,0.176,0.175,0,0.437l-0.262,0.264c2.369,3.774,6.14,6.757,11.405,8.95
		c0.175,0.263,0.175,0.439,0,0.439c-0.965,0.088-1.931,0.703-2.983,1.843c-4.123-2.983-7.02-6.669-8.863-10.881v0.088
		c-3.07,4.826-7.632,9.126-13.688,13.074c-0.175,0.088-0.264,0.088-0.351,0c0-0.176,0-0.265,0.087-0.349
		C67.642,12.134,71.679,7.131,74.4,1.253z M79.051,16.082l1.141-1.404l2.455,1.317c0.089,0.087,0.089,0.175,0.089,0.349
		l-0.703,0.967l0.088,5.792l0.176,0.525c0.089,0.175,0.089,0.353,0,0.353c0,0.088-0.088,0.088-0.352,0.088
		c-2.894-0.266-6.405-0.352-10.705-0.177c-0.35,1.227-0.964,2.194-1.93,2.895c-0.177,0.09-0.352,0-0.439-0.175l0.088-4.825
		l0.089-3.423l-0.089-2.809c0-0.175,0-0.175,0.089-0.175c0-0.087,0.086-0.087,0.176,0l1.929,1.053L79.051,16.082z M74.048,12.045
		c-1.053,0.088-2.02,0.175-2.896,0.352l-0.702-0.877l7.283-0.087l1.229-1.317l1.841,1.58c0.09,0.175,0,0.351-0.086,0.351H74.048z
		 M71.327,16.785v6.404l7.897-0.087l-0.087-6.406L71.327,16.785z"/>
	<path fill="#A69068" d="M93.177,15.468c-0.176,0.087-0.263,0.087-0.351,0c0-0.175,0-0.262,0.088-0.352
		c3.598-3.597,6.406-8.159,8.6-13.688l2.281,1.403l0.175,0.088c0,0.088-0.087,0.175-0.175,0.175l-0.353,0.439
		c-0.788,1.229-1.841,2.808-3.422,4.65l0.177,15.182c-0.177,0.876-0.701,1.842-1.579,2.896c-0.177,0.174-0.354,0.174-0.527,0.174
		c-0.088,0-0.088-0.088-0.088-0.351l0.088-6.932l0.088-8.951C96.601,12.397,94.844,14.063,93.177,15.468z M107.216,1.692
		l2.194,1.403c0.176,0.089,0.176,0.175,0,0.351c0.087,0,0.087,0,0,0.088l-0.614,0.615c-0.791,0.877-1.58,1.842-2.369,2.808
		l7.195-0.352l1.316-1.58l1.931,1.667c0.175,0.088,0.175,0.176,0,0.176l-7.896,0.438v4.651l4.034-0.176l1.317-1.315l1.667,1.403
		c0.177,0.089,0.087,0.176-0.089,0.351l-6.93,0.352l0.088,4.915l4.648-0.177l1.317-1.403l1.667,1.58
		c0.176,0.086,0.086,0.174-0.088,0.35l-7.545,0.175v5.529c-0.177,1.053-0.791,2.02-1.757,2.896
		c-0.438,0.263-0.614,0.263-0.701-0.088l0.177-6.933l0.174-11.845l-1.228,0.086c-1.23,1.229-2.459,2.37-3.688,3.335
		c-0.172,0.175-0.262,0.088-0.172-0.176c2.367-2.633,4.124-5.528,5.176-8.862C106.953,1.517,107.041,1.429,107.216,1.692z"/>
</g>
</svg>
