<?xml version="1.0" encoding="utf-8"?>
<!-- Generator: Adobe Illustrator 16.0.0, SVG Export Plug-In . SVG Version: 6.00 Build 0)  -->
<!DOCTYPE svg PUBLIC "-//W3C//DTD SVG 1.1//EN" "http://www.w3.org/Graphics/SVG/1.1/DTD/svg11.dtd">
<svg version="1.1" id="图层_1" xmlns="http://www.w3.org/2000/svg" xmlns:xlink="http://www.w3.org/1999/xlink" x="0px" y="0px"
	 width="118px" height="28px" viewBox="0 0 118 28" enable-background="new 0 0 118 28" xml:space="preserve">
<g>
	<path fill="#A69068" d="M18.343,6.319l2.547,1.317c0.176,0.087,0.176,0.176,0,0.264l-0.527,0.615l-1.581,2.547l2.547-0.087
		l1.406-1.582l1.932,1.669c0.176,0.176,0.088,0.264-0.087,0.264L9.294,11.766v3.162c0.439,4.48-2.284,8.521-8.081,11.948
		c-0.176,0-0.176-0.089-0.176-0.177c-0.088-0.088,0-0.177,0.087-0.177c2.372-1.843,3.954-3.513,4.656-5.006
		c0.791-1.582,1.229-4.129,1.229-7.555v-0.614l-0.175-3.075c0-0.176,0.088-0.263,0.175-0.176l2.46,1.23l1.932-0.088l-0.087-2.636
		c0-0.175,0-0.439-0.088-0.79c0-0.176,0-0.352,0-0.439c0-0.176,0.088-0.176,0.175-0.088l1.934,0.79
		c0.175,0.088,0.263,0.176,0.175,0.352l-0.088,2.899l3.338-0.088L18.343,6.319z M8.767,5.792c-1.23,0-2.196,0.087-2.987,0.263
		l-0.702-0.79l8.696-0.088l0.088-3.514l2.987,0.615c0.175,0,0.175,0.176,0,0.527L16.585,3.42l-0.087,1.756l5.71-0.087l1.317-1.318
		l1.669,1.494c0.175,0.087,0.175,0.176,0,0.176L8.767,5.792z"/>
	<path fill="#A69068" d="M40.568,14.928l1.054-1.405l2.372,1.318c0.175,0,0.175,0.087,0,0.176l-0.527,0.702v5.709l0.176,0.528
		c0.175,0.264,0,0.439-0.263,0.439c-1.933-0.176-4.305-0.265-7.028-0.176v1.229c-0.176,0.703-0.615,1.405-1.406,2.108
		c-0.175,0.176-0.351,0.263-0.439,0.176c-0.175-0.088-0.175-0.176-0.175-0.439l0.087-4.129l0.088-4.304l-0.088-3.251l1.933,1.23
		h4.217V14.928z M36.263,15.454v6.15h4.393v-6.15H36.263z M47.947,3.596l1.142-1.406l2.459,1.318c0.176,0.088,0.176,0.175,0,0.263
		L50.934,4.65v5.534l0.263,0.616c0.176,0.263,0,0.439-0.263,0.439c-1.406-0.176-3.075-0.264-5.096-0.264
		c-2.284-0.088-4.216-0.088-5.797,0c-0.264,0.878-0.791,1.669-1.669,2.459c-0.439,0.088-0.615,0-0.615-0.263l0.088-4.656V5.353
		l-0.088-2.459c0-0.176,0-0.176,0.088-0.176c0-0.088,0.087-0.088,0.176,0l1.932,1.142L47.947,3.596z M39.952,4.386v5.798h8.082
		l-0.087-6.061L39.952,4.386z M51.548,14.577l1.055-1.405l2.459,1.318c0.176,0.087,0.176,0.176,0,0.263l-0.614,0.791l-0.088,6.062
		l0.176,0.615c0.088,0.176,0.088,0.264,0.088,0.264c-0.088,0.088-0.175,0.088-0.351,0.088c-1.933-0.176-4.393-0.265-7.467-0.265
		v0.879c-0.176,0.792-0.615,1.406-1.405,2.021c-0.176,0.176-0.352,0.265-0.439,0.176c-0.176-0.088-0.176-0.264-0.176-0.527
		l0.089-4.129l0.087-3.864l-0.087-3.514l2.02,1.229H51.548z M46.98,15.279l-0.088,6.413l4.568-0.088l0.087-6.412L46.98,15.279z"/>
	<path fill="#A69068" d="M67.097,16.509c-0.79,1.406-1.493,1.933-2.37,1.582L64.638,7.374c0-0.176,0-0.264,0.089-0.264
		c0.087,0,0.175,0,0.175,0.087l1.933,1.143l6.324-0.176V6.055l-0.089-4.479l3.075,0.79c0.177,0,0.265,0.088,0.089,0.264
		c-0.177,0.176-0.352,0.527-0.527,1.054v4.48l5.975-0.088l1.229-1.581L85.37,7.9c0.175,0.088,0.175,0.175,0,0.263l-0.616,0.878
		l0.089,5.975l0.175,0.613c0.176,0.265,0,0.439-0.352,0.439c-1.669-0.175-4.744-0.262-9.047-0.087v4.743v2.898
		c-0.353,1.318-1.057,2.284-2.285,3.075c-0.176,0.088-0.351-0.088-0.526-0.438l0.176-5.008v-5.184c-1.055,0-2.372,0-4.13,0.089
		c-1.054,0-1.669,0-2.02,0v0.351H67.097z M67.01,8.867v6.413l6.236-0.087V8.779L67.01,8.867z M81.856,8.515l-6.062,0.088v6.414
		l6.147-0.089L81.856,8.515z"/>
	<path fill="#A69068" d="M96.351,10.624c0-0.176,0.089-0.176,0.35-0.176c0.089,0,0.177,0.088,0.177,0.176
		c0.88,2.986,0.967,5.445,0.264,7.379c-0.615,0.879-1.405,1.405-2.459,1.405c-0.792-0.177-0.792-0.791-0.178-1.845
		C95.735,16.069,96.351,13.786,96.351,10.624z M100.831,8.34l2.722,1.229c0.178,0,0.178,0.088,0,0.351l-0.264,0.615l-0.79,9.927
		c-0.175,1.404,0.528,2.021,1.933,2.021c2.196,0.263,4.217,0.088,6.062-0.527c0.439-0.175,0.615-0.528,0.528-1.143l-0.089-2.898
		c0-0.177,0.089-0.265,0.176-0.265c0.088,0,0.175,0.088,0.175,0.176l0.703,2.021c0.439,0.966,0.966,1.757,1.757,2.372
		c1.056,0.79,0.968,1.58-0.438,2.283c-2.372,0.791-5.535,0.879-9.488,0.265c-2.282-0.44-3.338-2.021-3.25-4.833l0.177-7.906
		c0-2.02,0-3.25-0.088-3.689C100.566,8.34,100.655,8.251,100.831,8.34z M103.113,2.278c3.515,0.966,5.358,1.845,5.535,2.723
		c0,1.054-0.352,1.933-1.054,2.46c-0.703,0.439-1.054,0.352-1.23-0.264c-0.879-2.283-2.02-3.865-3.513-4.743
		C102.852,2.366,102.852,2.278,103.113,2.278z M110.933,10.711c3.602,1.405,5.622,2.898,5.974,4.305
		c-0.088,1.053-0.527,2.02-1.316,2.634c-0.704,0.44-1.144,0.353-1.318-0.438c-0.792-2.898-1.934-5.095-3.339-6.325
		C110.668,10.711,110.757,10.624,110.933,10.711z"/>
</g>
</svg>
