<?xml version="1.0" encoding="utf-8"?>
<!-- Generator: Adobe Illustrator 16.0.0, SVG Export Plug-In . SVG Version: 6.00 Build 0)  -->
<!DOCTYPE svg PUBLIC "-//W3C//DTD SVG 1.1//EN" "http://www.w3.org/Graphics/SVG/1.1/DTD/svg11.dtd">
<svg version="1.1" id="图层_1" xmlns="http://www.w3.org/2000/svg" xmlns:xlink="http://www.w3.org/1999/xlink" x="0px" y="0px"
	 width="270px" height="120px" viewBox="0 0 270 120" enable-background="new 0 0 270 120" xml:space="preserve">
<rect x="-9.101" y="-21.586" display="none" fill="#FFFFFF" width="292.201" height="162.172"/>
<path fill="#A69068" d="M132.668,116.077c-24.285,0-44.893-17.764-48.283-41.924c-0.267-1.906,1.06-3.667,2.965-3.934
	c1.92-0.271,3.667,1.063,3.935,2.966c2.97,21.162,21.369,36.565,42.778,35.903c22.279-0.722,40.4-20.07,40.4-43.129
	c0-1.731-1.409-3.145-3.143-3.145h-10.323c-1.923,0-3.481-1.558-3.481-3.482c0-1.924,1.559-3.483,3.481-3.483h10.323
	c5.574,0,10.111,4.535,10.111,10.109c0,26.776-21.147,49.246-47.143,50.091C133.745,116.067,133.204,116.077,132.668,116.077z"/>
<path fill="#A69068" d="M177.716,45.284h-16.719c-1.925,0-3.481-1.559-3.481-3.483c0-1.924,1.557-3.482,3.481-3.482h16.719
	c1.922,0,3.481,1.559,3.481,3.482C181.197,43.726,179.638,45.284,177.716,45.284z"/>
<path fill="#A69068" d="M221.946,68.679h-29.255c-1.922,0-3.483-1.56-3.483-3.483c0-1.923,1.562-3.483,3.483-3.483h29.255
	c1.925,0,3.484,1.559,3.484,3.483C225.431,67.117,223.871,68.679,221.946,68.679z"/>
<path fill="#A69068" d="M258.517,11.269h-18.265V6.045c0-1.924-1.558-3.483-3.481-3.483c-1.923,0-3.483,1.559-3.483,3.483v5.224
	h-47.061V6.045c0-1.924-1.56-3.483-3.484-3.483c-1.922,0-3.481,1.559-3.481,3.483v5.224h-18.264c-1.925,0-3.481,1.561-3.481,3.483
	c0,1.924,1.557,3.482,3.481,3.482h18.264v5.572c0,1.925,1.56,3.483,3.481,3.483c1.925,0,3.484-1.559,3.484-3.483v-5.572h47.061
	v5.572c0,1.925,1.561,3.483,3.483,3.483c1.924,0,3.483-1.559,3.481-3.483v-5.572h18.265c1.924,0,3.485-1.56,3.482-3.482
	C261.999,12.83,260.44,11.269,258.517,11.269z"/>
<path fill="#A69068" d="M178.407,116.394c-1.589,0-3.024-1.096-3.393-2.712c-0.428-1.876,0.748-3.742,2.625-4.168
	c2.451-0.557,6.21-3.293,8.73-9.178c1.625-3.791,2.611-6.518,2.602-12.44c-0.006-3.29,1.125-6.236,3.185-8.3
	c1.938-1.94,4.54-2.966,7.527-2.966h15.877c5.568,0,10.102,4.825,10.102,10.758v25.521c0,1.924-1.56,3.484-3.484,3.484
	c-1.923,0-3.481-1.56-3.481-3.484V87.388c0-2.091-1.406-3.791-3.136-3.791h-15.877c-1.113,0-1.986,0.31-2.597,0.92
	c-0.733,0.735-1.151,1.962-1.148,3.37c0.013,7.211-1.365,10.996-3.165,15.195c-3.015,7.034-8.097,11.977-13.591,13.225
	C178.924,116.366,178.664,116.394,178.407,116.394z"/>
<path fill="#A69068" d="M102.718,55.849H63.012V31.702c0-1.924-1.559-3.483-3.481-3.483c-1.924,0-3.483,1.56-3.483,3.483v24.147
	H25.397c-3.841,0-6.965-3.125-6.965-6.966V25.2c0-3.841,3.125-6.966,6.965-6.966h66.988c6.444,0,11.024-3.71,13.615-11.028
	c0.643-1.812-0.307-3.803-2.122-4.444c-1.809-0.644-3.803,0.306-4.444,2.122c-1.987,5.612-4.563,6.384-7.049,6.384H25.397
	c-7.682,0-13.932,6.25-13.932,13.932v23.683c0,7.682,6.25,13.933,13.932,13.933h30.649v40.866c0,2.266-0.606,3.935-1.804,4.958
	c-1.061,0.911-3.339,0.865-6.221,0.809l-1.154-0.02c-1.957,0.044-3.505,1.509-3.533,3.433c-0.028,1.922,1.509,3.504,3.432,3.532
	l1.118,0.019c0.681,0.015,1.357,0.027,2.025,0.027c3.262,0,6.313-0.319,8.867-2.51c2.77-2.376,4.235-5.918,4.235-10.248V62.815
	h39.706c1.922,0,3.481-1.56,3.481-3.484C106.199,57.408,104.64,55.849,102.718,55.849z"/>
<path fill="#A69068" d="M263.169,110.377c-0.086-0.093-6.534-7.172-12.467-17.787c1.628-3.382,3.299-7.149,4.952-11.306
	c6.413-16.131,7.738-26.921,4.051-32.984c-1.258-2.069-3.769-4.635-8.581-5.116c-0.112-0.012-0.229-0.018-0.345-0.018h-8.761
	c-1.067,0-1.773,0-1.773-2.176v-4.358c0-1.924-1.56-3.483-3.482-3.483c-1.924,0-3.481,1.559-3.481,3.483v4.358
	c0,5.553,3.43,9.143,8.737,9.143h8.572c1.98,0.237,2.73,1.077,3.163,1.789c1.104,1.817,2.872,8.066-4.574,26.79
	c-0.819,2.062-1.646,4.021-2.468,5.885c-0.538-1.225-1.058-2.474-1.545-3.75c-5.006-13.113-4.928-22.873-4.925-23.07
	c0.036-1.921-1.488-3.509-3.408-3.548c-1.869-0.149-3.515,1.486-3.556,3.407c-0.009,0.448-0.169,11.152,5.382,25.697
	c1.263,3.308,2.696,6.448,4.198,9.379c-5.982,11.717-10.965,17.699-11.032,17.778c-1.239,1.469-1.057,3.668,0.41,4.906
	c0.655,0.554,1.455,0.823,2.252,0.823c0.984,0,1.966-0.417,2.656-1.227c0.261-0.309,4.437-5.298,9.781-15.048
	c5.526,9.019,10.785,14.79,11.118,15.151c0.685,0.746,1.622,1.126,2.563,1.126c0.845,0,1.688-0.304,2.355-0.922
	C264.379,113.995,264.469,111.792,263.169,110.377z"/>
<path fill="#A69068" d="M8.936,116.22c-1.106,0-2.193-0.526-2.87-1.508c-1.092-1.584-0.693-3.751,0.892-4.845
	c0.055-0.036,6.791-4.848,13.437-16.578c7.029-12.406,7.443-19.536,7.446-19.605c0.09-1.91,1.683-3.377,3.614-3.329
	c1.911,0.074,3.404,1.658,3.346,3.57c-0.01,0.348-0.349,8.686-8.347,22.797c-7.507,13.252-15.219,18.66-15.545,18.885
	C10.306,116.02,9.618,116.22,8.936,116.22z"/>
<path fill="#A69068" d="M222.78,33.147c-1.924,0-3.481,1.559-3.481,3.483v3.08c0,3.906-3.149,7.083-7.02,7.083h-1.479V36.631
	c0-1.924-1.558-3.483-3.481-3.483c-1.923,0-3.482,1.559-3.482,3.483v10.163h-1.479c-3.872,0-7.02-3.177-7.02-7.083v-3.08
	c0-1.924-1.559-3.483-3.483-3.483c-1.922,0-3.48,1.559-3.48,3.483v3.08c0,7.747,6.271,14.048,13.983,14.048h9.925
	c7.71,0,13.984-6.301,13.981-14.048v-3.08C226.264,34.707,224.703,33.147,222.78,33.147z"/>
</svg>
